<mxfile host="app.diagrams.net" modified="2020-11-06T06:26:07.424Z" agent="5.0 (Windows NT 10.0; Win64; x64) AppleWebKit/537.36 (KHTML, like Gecko) Chrome/86.0.4240.183 Safari/537.36 Edg/86.0.622.63" etag="aLj6VN7jp1l-wIm_Bbko" version="13.9.1" type="github">
  <diagram id="dqa7lNRxKlEO-pRqrmKs" name="Page-1">
    <mxGraphModel dx="2912" dy="1122" grid="1" gridSize="10" guides="1" tooltips="1" connect="1" arrows="1" fold="1" page="1" pageScale="1" pageWidth="850" pageHeight="1100" math="0" shadow="0">
      <root>
        <mxCell id="0" />
        <mxCell id="1" parent="0" />
        <mxCell id="jcwe3pfhumiKDBqwzcCS-14" style="edgeStyle=orthogonalEdgeStyle;rounded=0;orthogonalLoop=1;jettySize=auto;html=1;entryX=0.5;entryY=0;entryDx=0;entryDy=0;fontStyle=1" parent="1" target="jcwe3pfhumiKDBqwzcCS-2" edge="1">
          <mxGeometry relative="1" as="geometry">
            <mxPoint x="300" y="250" as="sourcePoint" />
          </mxGeometry>
        </mxCell>
        <mxCell id="jcwe3pfhumiKDBqwzcCS-15" style="edgeStyle=orthogonalEdgeStyle;rounded=0;orthogonalLoop=1;jettySize=auto;html=1;entryX=0.5;entryY=0;entryDx=0;entryDy=0;fontStyle=1" parent="1" source="jcwe3pfhumiKDBqwzcCS-1" target="jcwe3pfhumiKDBqwzcCS-3" edge="1">
          <mxGeometry relative="1" as="geometry">
            <Array as="points">
              <mxPoint x="300" y="250" />
              <mxPoint x="450" y="250" />
            </Array>
          </mxGeometry>
        </mxCell>
        <mxCell id="jcwe3pfhumiKDBqwzcCS-16" style="edgeStyle=orthogonalEdgeStyle;rounded=0;orthogonalLoop=1;jettySize=auto;html=1;entryX=0.5;entryY=0;entryDx=0;entryDy=0;fontStyle=1" parent="1" target="jcwe3pfhumiKDBqwzcCS-5" edge="1">
          <mxGeometry relative="1" as="geometry">
            <mxPoint x="300" y="250" as="sourcePoint" />
          </mxGeometry>
        </mxCell>
        <mxCell id="jcwe3pfhumiKDBqwzcCS-17" style="edgeStyle=orthogonalEdgeStyle;rounded=0;orthogonalLoop=1;jettySize=auto;html=1;entryX=0.5;entryY=0;entryDx=0;entryDy=0;fontStyle=1" parent="1" target="jcwe3pfhumiKDBqwzcCS-4" edge="1">
          <mxGeometry relative="1" as="geometry">
            <mxPoint x="300" y="250" as="sourcePoint" />
          </mxGeometry>
        </mxCell>
        <mxCell id="jcwe3pfhumiKDBqwzcCS-1" value="Predict and Prevent" style="rounded=1;whiteSpace=wrap;html=1;fontStyle=1;fillColor=#f5f5f5;strokeColor=#666666;fontColor=#333333;" parent="1" vertex="1">
          <mxGeometry x="220" y="150" width="160" height="60" as="geometry" />
        </mxCell>
        <mxCell id="jcwe3pfhumiKDBqwzcCS-18" value="" style="edgeStyle=orthogonalEdgeStyle;rounded=0;orthogonalLoop=1;jettySize=auto;html=1;exitX=0.5;exitY=1;exitDx=0;exitDy=0;fontStyle=1" parent="1" source="jcwe3pfhumiKDBqwzcCS-2" target="jcwe3pfhumiKDBqwzcCS-6" edge="1">
          <mxGeometry relative="1" as="geometry">
            <mxPoint x="-230" y="400" as="sourcePoint" />
            <Array as="points">
              <mxPoint x="-250" y="390" />
              <mxPoint x="-90" y="390" />
            </Array>
          </mxGeometry>
        </mxCell>
        <mxCell id="jcwe3pfhumiKDBqwzcCS-36" style="edgeStyle=orthogonalEdgeStyle;rounded=0;orthogonalLoop=1;jettySize=auto;html=1;entryX=0.5;entryY=0;entryDx=0;entryDy=0;exitX=0.5;exitY=1;exitDx=0;exitDy=0;fontStyle=1" parent="1" source="jcwe3pfhumiKDBqwzcCS-2" target="jcwe3pfhumiKDBqwzcCS-27" edge="1">
          <mxGeometry relative="1" as="geometry">
            <Array as="points">
              <mxPoint x="-250" y="390" />
              <mxPoint x="-400" y="390" />
            </Array>
          </mxGeometry>
        </mxCell>
        <mxCell id="6nJ1JO_80DaVWA7sprvd-2" style="edgeStyle=orthogonalEdgeStyle;rounded=0;orthogonalLoop=1;jettySize=auto;html=1;exitX=0.5;exitY=1;exitDx=0;exitDy=0;entryX=0.5;entryY=0;entryDx=0;entryDy=0;fontStyle=1" parent="1" source="jcwe3pfhumiKDBqwzcCS-2" target="6nJ1JO_80DaVWA7sprvd-1" edge="1">
          <mxGeometry relative="1" as="geometry" />
        </mxCell>
        <mxCell id="6nJ1JO_80DaVWA7sprvd-7" style="edgeStyle=orthogonalEdgeStyle;rounded=0;orthogonalLoop=1;jettySize=auto;html=1;exitX=0.5;exitY=1;exitDx=0;exitDy=0;fontStyle=1" parent="1" source="jcwe3pfhumiKDBqwzcCS-2" target="6nJ1JO_80DaVWA7sprvd-6" edge="1">
          <mxGeometry relative="1" as="geometry" />
        </mxCell>
        <mxCell id="jcwe3pfhumiKDBqwzcCS-2" value="Resident user" style="rounded=1;whiteSpace=wrap;html=1;fontStyle=1;fillColor=#dae8fc;strokeColor=#6c8ebf;shadow=1;fontSize=14;" parent="1" vertex="1">
          <mxGeometry x="-310" y="300" width="120" height="60" as="geometry" />
        </mxCell>
        <mxCell id="jcwe3pfhumiKDBqwzcCS-20" value="" style="edgeStyle=orthogonalEdgeStyle;rounded=0;orthogonalLoop=1;jettySize=auto;html=1;fontStyle=1" parent="1" source="jcwe3pfhumiKDBqwzcCS-3" target="jcwe3pfhumiKDBqwzcCS-8" edge="1">
          <mxGeometry relative="1" as="geometry" />
        </mxCell>
        <mxCell id="jcwe3pfhumiKDBqwzcCS-37" style="edgeStyle=orthogonalEdgeStyle;rounded=0;orthogonalLoop=1;jettySize=auto;html=1;entryX=0.5;entryY=0;entryDx=0;entryDy=0;fontStyle=1" parent="1" source="jcwe3pfhumiKDBqwzcCS-3" target="jcwe3pfhumiKDBqwzcCS-28" edge="1">
          <mxGeometry relative="1" as="geometry" />
        </mxCell>
        <mxCell id="jcwe3pfhumiKDBqwzcCS-42" style="edgeStyle=orthogonalEdgeStyle;rounded=0;orthogonalLoop=1;jettySize=auto;html=1;entryX=0.5;entryY=0;entryDx=0;entryDy=0;fontStyle=1" parent="1" source="jcwe3pfhumiKDBqwzcCS-3" target="jcwe3pfhumiKDBqwzcCS-39" edge="1">
          <mxGeometry relative="1" as="geometry" />
        </mxCell>
        <mxCell id="jcwe3pfhumiKDBqwzcCS-3" value="Public Health Service" style="rounded=1;whiteSpace=wrap;html=1;fontStyle=1;fillColor=#dae8fc;strokeColor=#6c8ebf;shadow=1;fontSize=14;" parent="1" vertex="1">
          <mxGeometry x="390" y="310" width="120" height="60" as="geometry" />
        </mxCell>
        <mxCell id="jcwe3pfhumiKDBqwzcCS-33" value="" style="edgeStyle=orthogonalEdgeStyle;rounded=0;orthogonalLoop=1;jettySize=auto;html=1;entryX=0.5;entryY=0;entryDx=0;entryDy=0;fontStyle=1" parent="1" source="jcwe3pfhumiKDBqwzcCS-4" target="jcwe3pfhumiKDBqwzcCS-30" edge="1">
          <mxGeometry relative="1" as="geometry">
            <mxPoint x="770" y="440" as="targetPoint" />
          </mxGeometry>
        </mxCell>
        <mxCell id="jcwe3pfhumiKDBqwzcCS-34" style="edgeStyle=orthogonalEdgeStyle;rounded=0;orthogonalLoop=1;jettySize=auto;html=1;entryX=0.5;entryY=0;entryDx=0;entryDy=0;fontStyle=1" parent="1" source="jcwe3pfhumiKDBqwzcCS-4" target="jcwe3pfhumiKDBqwzcCS-12" edge="1">
          <mxGeometry relative="1" as="geometry" />
        </mxCell>
        <mxCell id="jcwe3pfhumiKDBqwzcCS-35" style="edgeStyle=orthogonalEdgeStyle;rounded=0;orthogonalLoop=1;jettySize=auto;html=1;entryX=0.5;entryY=0;entryDx=0;entryDy=0;fontStyle=1" parent="1" source="jcwe3pfhumiKDBqwzcCS-4" target="jcwe3pfhumiKDBqwzcCS-10" edge="1">
          <mxGeometry relative="1" as="geometry" />
        </mxCell>
        <mxCell id="jcwe3pfhumiKDBqwzcCS-4" value="Lab" style="rounded=1;whiteSpace=wrap;html=1;fontStyle=1;fillColor=#dae8fc;strokeColor=#6c8ebf;shadow=1;fontSize=14;" parent="1" vertex="1">
          <mxGeometry x="710" y="300" width="120" height="60" as="geometry" />
        </mxCell>
        <mxCell id="jcwe3pfhumiKDBqwzcCS-21" value="" style="edgeStyle=orthogonalEdgeStyle;rounded=0;orthogonalLoop=1;jettySize=auto;html=1;fontStyle=1" parent="1" source="jcwe3pfhumiKDBqwzcCS-5" target="jcwe3pfhumiKDBqwzcCS-13" edge="1">
          <mxGeometry relative="1" as="geometry" />
        </mxCell>
        <mxCell id="jcwe3pfhumiKDBqwzcCS-38" style="edgeStyle=orthogonalEdgeStyle;rounded=0;orthogonalLoop=1;jettySize=auto;html=1;entryX=0.5;entryY=0;entryDx=0;entryDy=0;fontStyle=1" parent="1" source="jcwe3pfhumiKDBqwzcCS-5" target="jcwe3pfhumiKDBqwzcCS-29" edge="1">
          <mxGeometry relative="1" as="geometry" />
        </mxCell>
        <mxCell id="6nJ1JO_80DaVWA7sprvd-4" style="edgeStyle=orthogonalEdgeStyle;rounded=0;orthogonalLoop=1;jettySize=auto;html=1;exitX=0.5;exitY=1;exitDx=0;exitDy=0;entryX=0.5;entryY=0;entryDx=0;entryDy=0;fontStyle=1" parent="1" source="jcwe3pfhumiKDBqwzcCS-5" target="6nJ1JO_80DaVWA7sprvd-3" edge="1">
          <mxGeometry relative="1" as="geometry" />
        </mxCell>
        <mxCell id="jcwe3pfhumiKDBqwzcCS-5" value="Alert center" style="rounded=1;whiteSpace=wrap;html=1;fontStyle=1;fillColor=#dae8fc;strokeColor=#6c8ebf;shadow=1;fontSize=14;" parent="1" vertex="1">
          <mxGeometry x="80" y="310" width="120" height="60" as="geometry" />
        </mxCell>
        <mxCell id="jcwe3pfhumiKDBqwzcCS-6" value="Get Users&#39; Information" style="rounded=1;whiteSpace=wrap;html=1;fontStyle=1;fillColor=#fff2cc;strokeColor=#d6b656;" parent="1" vertex="1">
          <mxGeometry x="-150" y="430" width="120" height="60" as="geometry" />
        </mxCell>
        <mxCell id="jcwe3pfhumiKDBqwzcCS-8" value="Issue Direct Alert" style="rounded=1;whiteSpace=wrap;html=1;fontStyle=1;fillColor=#f8cecc;strokeColor=#b85450;" parent="1" vertex="1">
          <mxGeometry x="470" y="430" width="120" height="60" as="geometry" />
        </mxCell>
        <mxCell id="jcwe3pfhumiKDBqwzcCS-10" value="Update DB &lt;br&gt;(Confirm Case)" style="rounded=1;whiteSpace=wrap;html=1;fontStyle=1;fillColor=#f8cecc;strokeColor=#b85450;" parent="1" vertex="1">
          <mxGeometry x="800" y="430" width="120" height="60" as="geometry" />
        </mxCell>
        <mxCell id="jcwe3pfhumiKDBqwzcCS-12" value="Get Users&#39; Information" style="rounded=1;whiteSpace=wrap;html=1;fontStyle=1;fillColor=#fff2cc;strokeColor=#d6b656;" parent="1" vertex="1">
          <mxGeometry x="620" y="430" width="120" height="60" as="geometry" />
        </mxCell>
        <mxCell id="jcwe3pfhumiKDBqwzcCS-13" value="Receive and Send Alert" style="rounded=1;whiteSpace=wrap;html=1;fontStyle=1;fillColor=#f8cecc;strokeColor=#b85450;" parent="1" vertex="1">
          <mxGeometry x="160" y="430" width="120" height="60" as="geometry" />
        </mxCell>
        <mxCell id="jcwe3pfhumiKDBqwzcCS-26" value="" style="edgeStyle=orthogonalEdgeStyle;rounded=0;orthogonalLoop=1;jettySize=auto;html=1;fontStyle=1" parent="1" source="jcwe3pfhumiKDBqwzcCS-25" target="jcwe3pfhumiKDBqwzcCS-1" edge="1">
          <mxGeometry relative="1" as="geometry" />
        </mxCell>
        <mxCell id="jcwe3pfhumiKDBqwzcCS-25" value="COVID Alert System" style="rounded=1;whiteSpace=wrap;html=1;fillColor=#f5f5f5;strokeColor=#666666;fontColor=#333333;fontStyle=1" parent="1" vertex="1">
          <mxGeometry x="240" y="30" width="120" height="60" as="geometry" />
        </mxCell>
        <mxCell id="jcwe3pfhumiKDBqwzcCS-27" value="User Log in" style="rounded=1;whiteSpace=wrap;html=1;fontStyle=1;fillColor=#e1d5e7;strokeColor=#9673a6;" parent="1" vertex="1">
          <mxGeometry x="-460" y="430" width="120" height="60" as="geometry" />
        </mxCell>
        <mxCell id="jcwe3pfhumiKDBqwzcCS-28" value="Connect to System" style="rounded=1;whiteSpace=wrap;html=1;fontStyle=1;fillColor=#d5e8d4;strokeColor=#82b366;" parent="1" vertex="1">
          <mxGeometry x="390" y="520" width="120" height="60" as="geometry" />
        </mxCell>
        <mxCell id="jcwe3pfhumiKDBqwzcCS-29" value="User Log in" style="rounded=1;whiteSpace=wrap;html=1;fontStyle=1;fillColor=#e1d5e7;strokeColor=#9673a6;" parent="1" vertex="1">
          <mxGeometry y="430" width="120" height="60" as="geometry" />
        </mxCell>
        <mxCell id="jcwe3pfhumiKDBqwzcCS-30" value="Connect to System" style="rounded=1;whiteSpace=wrap;html=1;fontStyle=1;fillColor=#d5e8d4;strokeColor=#82b366;" parent="1" vertex="1">
          <mxGeometry x="710" y="520" width="120" height="60" as="geometry" />
        </mxCell>
        <mxCell id="jcwe3pfhumiKDBqwzcCS-39" value="Get Users&#39; Information" style="rounded=1;whiteSpace=wrap;html=1;fontStyle=1;fillColor=#fff2cc;strokeColor=#d6b656;" parent="1" vertex="1">
          <mxGeometry x="310" y="430" width="120" height="60" as="geometry" />
        </mxCell>
        <mxCell id="6nJ1JO_80DaVWA7sprvd-1" value="Connect to System" style="rounded=1;whiteSpace=wrap;html=1;fontStyle=1;fillColor=#d5e8d4;strokeColor=#82b366;" parent="1" vertex="1">
          <mxGeometry x="-380" y="520" width="120" height="60" as="geometry" />
        </mxCell>
        <mxCell id="6nJ1JO_80DaVWA7sprvd-3" value="Connect to System" style="rounded=1;whiteSpace=wrap;html=1;fontStyle=1;fillColor=#d5e8d4;strokeColor=#82b366;" parent="1" vertex="1">
          <mxGeometry x="80" y="520" width="120" height="60" as="geometry" />
        </mxCell>
        <mxCell id="6nJ1JO_80DaVWA7sprvd-6" value="User Receive Alert" style="rounded=1;whiteSpace=wrap;html=1;fontStyle=1;fillColor=#f8cecc;strokeColor=#b85450;" parent="1" vertex="1">
          <mxGeometry x="-240" y="520" width="120" height="60" as="geometry" />
        </mxCell>
      </root>
    </mxGraphModel>
  </diagram>
</mxfile>
